<mxfile host="app.diagrams.net" agent="Mozilla/5.0 (Windows NT 10.0; Win64; x64) AppleWebKit/537.36 (KHTML, like Gecko) Chrome/129.0.0.0 Safari/537.36" version="24.7.16">
  <diagram name="第 1 页" id="EVDecErced9FCBMbNlyb">
    <mxGraphModel dx="1004" dy="583" grid="1" gridSize="10" guides="1" tooltips="1" connect="1" arrows="1" fold="1" page="1" pageScale="1" pageWidth="827" pageHeight="1169" math="0" shadow="0">
      <root>
        <mxCell id="0" />
        <mxCell id="1" parent="0" />
        <mxCell id="fZTRmzpA-WI6sdkBu2_M-3" value="&lt;p style=&quot;margin:0px;margin-top:6px;text-align:center;&quot;&gt;&lt;b&gt;orbit estimation&lt;/b&gt;&lt;/p&gt;&lt;hr size=&quot;1&quot; style=&quot;border-style:solid;&quot;&gt;&lt;p style=&quot;margin:0px;margin-left:8px;&quot;&gt;&lt;br&gt;&lt;/p&gt;" style="align=left;overflow=fill;html=1;dropTarget=0;whiteSpace=wrap;" vertex="1" parent="1">
          <mxGeometry x="50" y="75" width="710" height="715" as="geometry" />
        </mxCell>
        <mxCell id="fZTRmzpA-WI6sdkBu2_M-4" value="" style="shape=component;jettyWidth=8;jettyHeight=4;" vertex="1" parent="fZTRmzpA-WI6sdkBu2_M-3">
          <mxGeometry x="1" width="20" height="20" relative="1" as="geometry">
            <mxPoint x="-24" y="4" as="offset" />
          </mxGeometry>
        </mxCell>
        <mxCell id="fZTRmzpA-WI6sdkBu2_M-11" value="&lt;p style=&quot;text-align: center; margin: 6px 0px 0px;&quot;&gt;&lt;span style=&quot;background-color: initial; text-align: left;&quot;&gt;&lt;b&gt;Initialization&lt;/b&gt;&lt;/span&gt;&lt;/p&gt;&lt;hr size=&quot;1&quot; style=&quot;border-style:solid;&quot;&gt;&lt;p style=&quot;margin:0px;margin-left:8px;&quot;&gt;&lt;br&gt;&lt;/p&gt;" style="align=left;overflow=fill;html=1;dropTarget=0;whiteSpace=wrap;" vertex="1" parent="1">
          <mxGeometry x="145" y="205" width="190" height="170" as="geometry" />
        </mxCell>
        <mxCell id="fZTRmzpA-WI6sdkBu2_M-12" value="" style="shape=component;jettyWidth=8;jettyHeight=4;" vertex="1" parent="fZTRmzpA-WI6sdkBu2_M-11">
          <mxGeometry x="1" width="20" height="20" relative="1" as="geometry">
            <mxPoint x="-24" y="4" as="offset" />
          </mxGeometry>
        </mxCell>
        <mxCell id="fZTRmzpA-WI6sdkBu2_M-13" value="&lt;p style=&quot;text-align: center; margin: 6px 0px 0px;&quot;&gt;&lt;b style=&quot;background-color: initial; text-align: left;&quot;&gt;Calculation&lt;/b&gt;&lt;/p&gt;&lt;hr size=&quot;1&quot; style=&quot;border-style:solid;&quot;&gt;&lt;p style=&quot;margin:0px;margin-left:8px;&quot;&gt;&lt;br&gt;&lt;/p&gt;" style="align=left;overflow=fill;html=1;dropTarget=0;whiteSpace=wrap;" vertex="1" parent="1">
          <mxGeometry x="460" y="110" width="220" height="360" as="geometry" />
        </mxCell>
        <mxCell id="fZTRmzpA-WI6sdkBu2_M-14" value="" style="shape=component;jettyWidth=8;jettyHeight=4;" vertex="1" parent="fZTRmzpA-WI6sdkBu2_M-13">
          <mxGeometry x="1" width="20" height="20" relative="1" as="geometry">
            <mxPoint x="-24" y="4" as="offset" />
          </mxGeometry>
        </mxCell>
        <mxCell id="fZTRmzpA-WI6sdkBu2_M-15" value="&lt;p style=&quot;margin: 6px 0px 0px; text-align: center;&quot;&gt;&lt;span style=&quot;background-color: initial; text-align: left;&quot;&gt;&lt;b&gt;Visualization and evaluation&lt;/b&gt;&lt;/span&gt;&lt;/p&gt;&lt;hr size=&quot;1&quot; style=&quot;border-style:solid;&quot;&gt;&lt;p style=&quot;margin:0px;margin-left:8px;&quot;&gt;&lt;br&gt;&lt;/p&gt;" style="align=left;overflow=fill;html=1;dropTarget=0;whiteSpace=wrap;" vertex="1" parent="1">
          <mxGeometry x="120" y="422.5" width="240" height="147.5" as="geometry" />
        </mxCell>
        <mxCell id="fZTRmzpA-WI6sdkBu2_M-16" value="" style="shape=component;jettyWidth=8;jettyHeight=4;" vertex="1" parent="fZTRmzpA-WI6sdkBu2_M-15">
          <mxGeometry x="1" width="20" height="20" relative="1" as="geometry">
            <mxPoint x="-24" y="4" as="offset" />
          </mxGeometry>
        </mxCell>
        <mxCell id="fZTRmzpA-WI6sdkBu2_M-17" value="Loading kernel files" style="shape=module;align=left;spacingLeft=20;align=center;verticalAlign=top;whiteSpace=wrap;html=1;" vertex="1" parent="1">
          <mxGeometry x="160" y="250" width="150" height="40" as="geometry" />
        </mxCell>
        <mxCell id="fZTRmzpA-WI6sdkBu2_M-18" value="Initialization of the orbital structure" style="shape=module;align=left;spacingLeft=20;align=center;verticalAlign=top;whiteSpace=wrap;html=1;" vertex="1" parent="1">
          <mxGeometry x="160" y="310" width="150" height="40" as="geometry" />
        </mxCell>
        <mxCell id="fZTRmzpA-WI6sdkBu2_M-19" value="albedo effect" style="shape=module;align=left;spacingLeft=20;align=center;verticalAlign=top;whiteSpace=wrap;html=1;" vertex="1" parent="1">
          <mxGeometry x="480" y="160" width="160" height="30" as="geometry" />
        </mxCell>
        <mxCell id="fZTRmzpA-WI6sdkBu2_M-20" value=" inertial acceleration" style="shape=module;align=left;spacingLeft=20;align=center;verticalAlign=top;whiteSpace=wrap;html=1;" vertex="1" parent="1">
          <mxGeometry x="480" y="210" width="160" height="30" as="geometry" />
        </mxCell>
        <mxCell id="fZTRmzpA-WI6sdkBu2_M-22" value="influence of third bodies" style="shape=module;align=left;spacingLeft=20;align=center;verticalAlign=top;whiteSpace=wrap;html=1;" vertex="1" parent="1">
          <mxGeometry x="480" y="260" width="160" height="30" as="geometry" />
        </mxCell>
        <mxCell id="fZTRmzpA-WI6sdkBu2_M-23" value="solar radiation pressure" style="shape=module;align=left;spacingLeft=20;align=center;verticalAlign=top;whiteSpace=wrap;html=1;" vertex="1" parent="1">
          <mxGeometry x="480" y="320" width="160" height="30" as="geometry" />
        </mxCell>
        <mxCell id="fZTRmzpA-WI6sdkBu2_M-24" value="Lambert orbital boundary value" style="shape=module;align=left;spacingLeft=20;align=center;verticalAlign=top;whiteSpace=wrap;html=1;" vertex="1" parent="1">
          <mxGeometry x="480" y="380" width="160" height="40" as="geometry" />
        </mxCell>
        <mxCell id="fZTRmzpA-WI6sdkBu2_M-27" value="orbit visualization" style="shape=module;align=left;spacingLeft=20;align=center;verticalAlign=top;whiteSpace=wrap;html=1;" vertex="1" parent="1">
          <mxGeometry x="160" y="460" width="160" height="30" as="geometry" />
        </mxCell>
        <mxCell id="fZTRmzpA-WI6sdkBu2_M-28" value="plot a propagation" style="shape=module;align=left;spacingLeft=20;align=center;verticalAlign=top;whiteSpace=wrap;html=1;" vertex="1" parent="1">
          <mxGeometry x="160" y="510" width="160" height="30" as="geometry" />
        </mxCell>
        <mxCell id="fZTRmzpA-WI6sdkBu2_M-29" value="" style="html=1;verticalAlign=bottom;startArrow=oval;startFill=1;endArrow=block;startSize=8;curved=0;rounded=0;exitX=1;exitY=0.5;exitDx=0;exitDy=0;entryX=0;entryY=0.5;entryDx=0;entryDy=0;" edge="1" parent="1" source="fZTRmzpA-WI6sdkBu2_M-11" target="fZTRmzpA-WI6sdkBu2_M-13">
          <mxGeometry width="60" relative="1" as="geometry">
            <mxPoint x="320" y="230" as="sourcePoint" />
            <mxPoint x="380" y="230" as="targetPoint" />
          </mxGeometry>
        </mxCell>
        <mxCell id="fZTRmzpA-WI6sdkBu2_M-30" value="" style="html=1;verticalAlign=bottom;startArrow=oval;startFill=1;endArrow=block;startSize=8;curved=0;rounded=0;exitX=0.5;exitY=1;exitDx=0;exitDy=0;entryX=1;entryY=0.5;entryDx=0;entryDy=0;" edge="1" parent="1" source="fZTRmzpA-WI6sdkBu2_M-13" target="fZTRmzpA-WI6sdkBu2_M-15">
          <mxGeometry width="60" relative="1" as="geometry">
            <mxPoint x="500" y="540" as="sourcePoint" />
            <mxPoint x="560" y="540" as="targetPoint" />
            <Array as="points">
              <mxPoint x="570" y="496" />
            </Array>
          </mxGeometry>
        </mxCell>
      </root>
    </mxGraphModel>
  </diagram>
</mxfile>
